<!-- file: logo-balloon-wind.svg -->
<svg xmlns="http://www.w3.org/2000/svg" viewBox="0 0 64 64"
     role="img" aria-labelledby="title desc"
     width="64" height="64"
     style="--accent:#3b82f6; --accent-2:#22c55e; color: currentColor;">
  <title id="title">Balloon Wind Icon</title>
  <desc id="desc">A stylized balloon with wind swirls, representing balloons and wind data.</desc>
  <defs>
    <linearGradient id="g-accent" x1="0" y1="0" x2="0" y2="1">
      <stop offset="0%"  stop-color="var(--accent, #3b82f6)"/>
      <stop offset="100%" stop-color="var(--accent-2, #22c55e)"/>
    </linearGradient>
  </defs>

  <path d="M32 10c7.7 0 14 6.3 14 14c0 10.2-14 22-14 22S18 34.2 18 24c0-7.7 6.3-14 14-14z"
        fill="url(#g-accent)" stroke="currentColor" stroke-width="2" />

  <!-- 气球系带与细绳 -->
  <path d="M32 46v3" stroke="currentColor" stroke-width="2" stroke-linecap="round"/>
  <path d="M32 49c-4 2.8-8 1-10 6" fill="none" stroke="currentColor" stroke-width="2" stroke-linecap="round"/>

  <!-- 右侧风的“涡旋 + 箭头”，强调风向（来自方向） -->
  <g fill="none" stroke="currentColor" stroke-linecap="round" stroke-linejoin="round">
    <path d="M38 22c7 0 12-2.5 14-6" stroke-width="2.5"/>
    <path d="M38 30c9 0 16-3 19-8" stroke-width="2"/>
    <!-- 箭头（来自方向的标识） -->
    <path d="M52 16l-3.5 1.8l1.4-3.8" fill="currentColor" stroke="none"/>
    <path d="M57 21l-3.5 1.8l1.4-3.8" fill="currentColor" stroke="none"/>
  </g>

  <!-- 底部轻微“地平线/经线”弧线，暗示地图语义 -->
  <path d="M14 55a24 24 0 0 1 36 0" fill="none" stroke="currentColor" stroke-width="2" opacity="0.6"/>
</svg>